<?xml version="1.0" encoding="UTF-8"?>
<svg xmlns="http://www.w3.org/2000/svg" xmlns:xlink="http://www.w3.org/1999/xlink" viewBox="0 0 96 96" width="96px" height="96px">
<g id="surface15183612">
<path style=" stroke:none;fill-rule:nonzero;fill:rgb(100%,78.431374%,8.235294%);fill-opacity:1;" d="M 4 5.023438 C 3.699219 5.023438 3.410156 5.152344 3.199219 5.371094 C 2.988281 5.59375 2.875 5.890625 2.875 6.199219 L 2.875 16.316406 L 3.667969 17.128906 L 2.875 18.445312 L 2.875 26.941406 C 2.632812 26.9375 2.398438 27.035156 2.222656 27.210938 C 2.050781 27.390625 1.953125 27.632812 1.953125 27.882812 L 1.953125 33.09375 C 1.953125 33.34375 2.054688 33.582031 2.226562 33.757812 C 2.398438 33.929688 2.632812 34.027344 2.875 34.023438 L 2.875 34.457031 L 3.410156 35.242188 L 2.867188 35.957031 L 2.867188 51.597656 C 2.863281 52.0625 3.042969 52.507812 3.359375 52.835938 C 3.679688 53.167969 4.109375 53.351562 4.5625 53.351562 L 8.496094 53.351562 C 8.945312 53.351562 9.378906 53.167969 9.695312 52.835938 C 10.015625 52.507812 10.191406 52.0625 10.191406 51.597656 L 10.191406 34.015625 L 18.066406 34.015625 C 19.949219 34.011719 21.472656 32.441406 21.476562 30.503906 L 21.476562 8.535156 C 21.472656 6.597656 19.949219 5.027344 18.066406 5.023438 Z M 52.09375 5.023438 C 51.792969 5.023438 51.503906 5.144531 51.292969 5.363281 C 51.078125 5.582031 50.960938 5.882812 50.960938 6.191406 L 50.960938 16.835938 L 51.390625 18.316406 L 50.960938 19.160156 L 50.960938 22.320312 L 51.675781 23.253906 L 50.960938 24.683594 C 50.460938 24.6875 50.054688 25.109375 50.054688 25.625 L 50.054688 30.207031 C 50.058594 30.722656 50.460938 31.136719 50.960938 31.140625 L 50.960938 52.183594 C 50.960938 52.496094 51.078125 52.792969 51.292969 53.011719 C 51.503906 53.230469 51.792969 53.351562 52.09375 53.351562 L 65.675781 53.351562 C 66.582031 53.355469 67.449219 52.984375 68.089844 52.324219 C 68.730469 51.667969 69.09375 50.773438 69.09375 49.839844 L 69.09375 30.765625 C 69.066406 29.300781 68.257812 27.96875 66.988281 27.304688 L 67.3125 27.050781 C 68.390625 26.210938 69.046875 24.917969 69.101562 23.527344 L 69.101562 21.671875 L 68.75 20.59375 L 69.046875 19.355469 L 68.511719 18.230469 L 69.046875 16.894531 L 69.046875 7.367188 C 69.054688 6.082031 68.046875 5.03125 66.796875 5.023438 Z M 76.777344 5.023438 C 75.222656 5.027344 73.960938 6.332031 73.960938 7.9375 L 73.960938 49.851562 C 73.96875 51.777344 75.480469 53.339844 77.351562 53.351562 L 88.949219 53.351562 C 90.832031 53.351562 92.359375 51.777344 92.359375 49.839844 L 92.359375 25.222656 C 92.359375 24.582031 91.859375 24.0625 91.234375 24.058594 L 85.09375 24.058594 C 84.792969 24.054688 84.503906 24.179688 84.292969 24.398438 C 84.078125 24.617188 83.960938 24.914062 83.960938 25.222656 L 83.960938 29.355469 C 83.964844 29.996094 84.46875 30.511719 85.09375 30.511719 L 85.332031 30.511719 L 85.332031 44.738281 L 85.816406 44.964844 C 85.75 45.578125 85.585938 46.179688 85.332031 46.738281 C 85.269531 46.808594 84.933594 46.519531 84.84375 46.574219 C 84.65625 46.707031 84.4375 46.777344 84.207031 46.777344 L 82.40625 46.777344 C 82.105469 46.78125 81.816406 46.65625 81.605469 46.4375 C 81.394531 46.21875 81.273438 45.921875 81.273438 45.613281 L 81.273438 13.460938 L 81.007812 12.324219 C 80.992188 11.957031 81.160156 11.613281 81.457031 11.410156 C 81.636719 11.285156 82.171875 11.5 82.40625 11.5 L 84.84375 11.5 C 85.144531 11.496094 85.433594 11.621094 85.648438 11.839844 C 85.859375 12.058594 85.980469 12.355469 85.980469 12.667969 L 85.980469 15.570312 C 85.976562 16.210938 86.480469 16.734375 87.101562 16.738281 L 91.199219 16.738281 C 91.5 16.738281 91.789062 16.617188 92 16.394531 C 92.210938 16.175781 92.332031 15.878906 92.332031 15.570312 L 92.332031 7.9375 C 92.332031 7.164062 92.035156 6.421875 91.503906 5.875 C 90.972656 5.332031 90.253906 5.023438 89.503906 5.023438 Z M 27.515625 5.09375 C 26.9375 5.152344 26.496094 5.652344 26.496094 6.25 L 26.496094 49.898438 C 26.503906 51.828125 28.015625 53.386719 29.886719 53.402344 L 43 53.402344 C 43.90625 53.402344 44.773438 53.027344 45.414062 52.367188 C 46.050781 51.707031 46.410156 50.8125 46.410156 49.878906 L 46.410156 11.882812 L 45.835938 10.675781 L 46.390625 9.390625 L 46.390625 8.535156 L 46.007812 8.113281 L 46.390625 7.417969 L 46.390625 6.25 C 46.386719 5.609375 45.878906 5.089844 45.257812 5.09375 L 40.191406 5.09375 C 39.570312 5.097656 39.070312 5.613281 39.066406 6.25 L 39.066406 35.730469 L 38.769531 36.871094 L 39.066406 37.8125 L 39.066406 45.5625 C 39.066406 45.871094 38.945312 46.167969 38.734375 46.386719 C 38.523438 46.609375 38.234375 46.730469 37.933594 46.730469 L 37.378906 46.074219 L 35.054688 46.414062 L 34.953125 46.71875 C 34.652344 46.722656 34.363281 46.597656 34.148438 46.378906 C 33.9375 46.160156 33.816406 45.863281 33.820312 45.550781 L 33.820312 6.25 C 33.816406 5.9375 33.695312 5.640625 33.476562 5.421875 C 33.261719 5.207031 32.96875 5.085938 32.667969 5.09375 L 27.617188 5.09375 C 27.582031 5.089844 27.546875 5.089844 27.515625 5.09375 Z M 59.410156 11.488281 L 60.597656 11.488281 C 61.222656 11.492188 61.722656 12.015625 61.722656 12.65625 L 61.722656 24.683594 L 59.609375 24.683594 L 59.179688 24.144531 L 58.273438 23.996094 L 58.273438 12.65625 C 58.273438 12.347656 58.394531 12.050781 58.605469 11.828125 C 58.820312 11.609375 59.109375 11.488281 59.410156 11.488281 Z M 10.714844 11.617188 C 10.726562 11.617188 10.738281 11.617188 10.753906 11.617188 L 13.351562 11.617188 C 13.503906 11.613281 13.652344 11.675781 13.757812 11.785156 C 13.867188 11.898438 13.925781 12.046875 13.921875 12.203125 L 13.921875 24.960938 L 14.496094 24.960938 L 14.449219 26.214844 L 13.921875 26.214844 C 13.925781 26.410156 13.847656 26.597656 13.714844 26.734375 C 13.582031 26.875 13.398438 26.953125 13.210938 26.949219 L 10.914062 26.949219 C 10.722656 26.953125 10.542969 26.875 10.410156 26.734375 C 10.273438 26.597656 10.199219 26.410156 10.199219 26.214844 L 9.550781 25.714844 L 10.191406 25.058594 L 10.191406 12.203125 C 10.1875 11.898438 10.417969 11.640625 10.714844 11.617188 Z M 59.410156 31.140625 L 60.597656 31.140625 C 61.222656 31.144531 61.722656 31.667969 61.722656 32.308594 L 61.722656 40.851562 L 62.292969 41.882812 L 61.722656 42.617188 L 61.722656 45.71875 C 61.722656 45.828125 62.035156 45.863281 62.054688 46.015625 C 62.027344 46.296875 61.90625 46.566406 61.714844 46.769531 C 61.523438 46.925781 61.289062 47.011719 61.046875 47.015625 C 60.890625 47.003906 60.738281 46.960938 60.597656 46.886719 L 59.410156 46.886719 C 59.109375 46.886719 58.820312 46.765625 58.605469 46.546875 C 58.394531 46.328125 58.273438 46.027344 58.273438 45.71875 L 58.273438 32.308594 C 58.273438 31.996094 58.394531 31.699219 58.605469 31.480469 C 58.820312 31.261719 59.109375 31.140625 59.410156 31.140625 Z M 3.742188 57.382812 C 2.925781 57.46875 2.304688 58.175781 2.304688 59.023438 L 2.304688 63.488281 L 0.5625 63.488281 C 0.410156 63.488281 0.269531 63.550781 0.164062 63.660156 C 0.0585938 63.773438 0 63.921875 0 64.074219 L 0 65.941406 C 0.00390625 66.257812 0.253906 66.515625 0.5625 66.519531 L 2.285156 66.519531 L 2.285156 81.089844 L 0.5625 81.089844 C 0.410156 81.089844 0.265625 81.152344 0.160156 81.265625 C 0.0546875 81.378906 -0.00390625 81.53125 0 81.6875 L 0 83.550781 C 0.00390625 83.871094 0.253906 84.128906 0.5625 84.128906 L 2.285156 84.128906 L 2.285156 88.78125 C 2.289062 89.21875 2.460938 89.640625 2.765625 89.945312 C 3.066406 90.253906 3.480469 90.425781 3.90625 90.417969 L 91.761719 90.417969 C 92.640625 90.417969 93.355469 89.6875 93.359375 88.78125 L 93.359375 84.128906 L 95.4375 84.128906 C 95.746094 84.128906 95.996094 83.871094 95.996094 83.550781 L 95.996094 81.6875 C 96 81.53125 95.941406 81.382812 95.835938 81.273438 C 95.730469 81.160156 95.585938 81.097656 95.4375 81.097656 L 93.359375 81.097656 L 93.359375 66.527344 L 95.4375 66.519531 C 95.746094 66.515625 95.996094 66.257812 95.996094 65.941406 L 95.996094 64.074219 C 96 63.921875 95.941406 63.773438 95.835938 63.660156 C 95.730469 63.550781 95.585938 63.488281 95.4375 63.488281 L 93.359375 63.488281 L 93.359375 59.023438 C 93.359375 58.585938 93.1875 58.167969 92.890625 57.863281 C 92.589844 57.554688 92.183594 57.382812 91.757812 57.382812 L 3.90625 57.382812 C 3.851562 57.382812 3.796875 57.382812 3.742188 57.382812 Z M 5.476562 60.660156 L 90.160156 60.660156 L 90.160156 87.121094 L 5.476562 87.121094 Z M 14.125 64.96875 L 14.125 83.570312 L 22.246094 83.570312 L 22.246094 79.941406 L 17.648438 79.941406 L 17.648438 64.96875 Z M 35.292969 64.96875 L 35.292969 83.441406 L 38.816406 83.441406 L 38.816406 64.96875 Z M 54.933594 64.96875 L 54.933594 64.976562 L 52.378906 64.976562 L 52.378906 68.453125 L 54.933594 68.453125 L 54.933594 83.441406 L 58.457031 83.441406 L 58.457031 68.453125 L 61.304688 68.453125 L 61.304688 64.976562 L 58.457031 64.976562 L 58.457031 64.96875 Z M 74.085938 64.96875 L 74.085938 72.121094 L 73.703125 72.121094 L 73.703125 75.230469 L 74.085938 75.230469 L 74.085938 83.441406 L 80.921875 83.441406 L 80.921875 80.058594 L 77.609375 80.058594 L 77.609375 75.230469 L 80.816406 75.230469 L 80.816406 72.121094 L 77.609375 72.121094 L 77.609375 68.453125 L 81.132812 68.453125 L 81.132812 64.976562 L 77.609375 64.976562 L 77.609375 64.96875 Z M 74.085938 64.96875 "/>
</g>
</svg>
